<?xml version="1.0" encoding="iso-8859-1"?>
<!-- Generator: Adobe Illustrator 19.0.0, SVG Export Plug-In . SVG Version: 6.00 Build 0)  -->
<svg version="1.1" id="Capa_1" xmlns="http://www.w3.org/2000/svg" xmlns:xlink="http://www.w3.org/1999/xlink" x="0px" y="0px"
	 viewBox="0 0 512 512" style="enable-background:new 0 0 512 512;" xml:space="preserve">
<g>
	<g>
		<g>
			<path d="M194.56,204.8h9.748h103.404h9.728c16.937,0,30.72-13.783,30.72-30.72c0-3.625-0.799-7.025-1.946-10.24H165.806
				c-1.167,3.215-1.966,6.615-1.966,10.24C163.84,191.017,177.623,204.8,194.56,204.8z"/>
			<path d="M332.247,143.36c10.138-15.053,15.913-32.768,15.913-51.2C348.16,41.349,306.831,0,256,0
				c-50.811,0-92.16,41.349-92.16,92.16c0,18.432,5.796,36.147,15.933,51.2H332.247z"/>
			<path d="M83.907,471.04c-1.188,3.215-1.987,6.615-1.987,10.24c0,16.937,13.783,30.72,30.72,30.72h286.72
				c16.937,0,30.72-13.783,30.72-30.72c0-3.625-0.799-7.025-1.966-10.24H83.907z"/>
			<path d="M409.211,409.6c0.246-2.253,0.451-4.547,0.041-7.148c-2.068-12.472-12.104-23.47-29.901-32.666
				c-29.655-15.36-63.099-62.525-70.123-144.507H202.793c-7.025,81.981-40.469,129.147-70.124,144.507
				c-17.797,9.195-27.853,20.193-29.901,32.666c-0.43,2.601-0.205,4.895,0.041,7.148H409.211z"/>
			<path d="M428.114,450.56c1.167-3.215,1.966-6.615,1.966-10.24c0-3.625-0.717-7.025-1.864-10.24H83.804
				c-1.167,3.215-1.884,6.615-1.884,10.24c0,3.625,0.799,7.025,1.987,10.24H428.114z"/>
		</g>
	</g>
</g>
<g>
</g>
<g>
</g>
<g>
</g>
<g>
</g>
<g>
</g>
<g>
</g>
<g>
</g>
<g>
</g>
<g>
</g>
<g>
</g>
<g>
</g>
<g>
</g>
<g>
</g>
<g>
</g>
<g>
</g>
</svg>
