<svg xmlns="http://www.w3.org/2000/svg" version="1.1" xmlns:xlink="http://www.w3.org/1999/xlink" width="512" height="512" x="0" y="0" viewBox="0 0 512 512" style="enable-background:new 0 0 512 512" xml:space="preserve" class=""><g><path d="M194.56 204.8h122.88c16.937 0 30.72-13.783 30.72-30.72 0-3.625-.799-7.025-1.946-10.24H165.806c-1.167 3.215-1.966 6.615-1.966 10.24 0 16.937 13.783 30.72 30.72 30.72zM332.247 143.36c10.138-15.053 15.913-32.768 15.913-51.2C348.16 41.349 306.831 0 256 0c-50.811 0-92.16 41.349-92.16 92.16 0 18.432 5.796 36.147 15.933 51.2h152.474zM83.907 471.04c-1.188 3.215-1.987 6.615-1.987 10.24 0 16.937 13.783 30.72 30.72 30.72h286.72c16.937 0 30.72-13.783 30.72-30.72 0-3.625-.799-7.025-1.966-10.24H83.907zM409.211 409.6c.246-2.253.451-4.547.041-7.148-2.068-12.472-12.104-23.47-29.901-32.666-29.655-15.36-63.099-62.525-70.123-144.507H202.793c-7.025 81.981-40.469 129.147-70.124 144.507-17.797 9.195-27.853 20.193-29.901 32.666-.43 2.601-.205 4.895.041 7.148h306.402zM428.114 450.56c1.167-3.215 1.966-6.615 1.966-10.24s-.717-7.025-1.864-10.24H83.804c-1.167 3.215-1.884 6.615-1.884 10.24s.799 7.025 1.987 10.24h344.207z" fill="#020617" opacity="1" data-original="#000000" class=""></path></g></svg>